<?xml version="1.0" standalone="no"?>
<!DOCTYPE svg PUBLIC "-//W3C//DTD SVG 20010904//EN"
 "http://www.w3.org/TR/2001/REC-SVG-20010904/DTD/svg10.dtd">
<svg version="1.0" xmlns="http://www.w3.org/2000/svg"
 width="429.000000pt" height="640.000000pt" viewBox="0 0 429.000000 640.000000"
 preserveAspectRatio="xMidYMid meet">

<g transform="translate(0.000000,640.000000) scale(0.100000,-0.100000)"
fill="#000000" stroke="none">
<path d="M1315 6384 c-22 -9 -71 -22 -110 -30 -38 -8 -90 -25 -115 -37 l-45
-22 -5 -69 c-6 -81 -19 -92 -87 -69 -33 12 -43 20 -48 44 -4 16 -12 29 -20 29
-17 0 -72 -23 -174 -72 -58 -27 -93 -38 -111 -35 -19 4 -29 0 -38 -13 -14 -23
-68 -52 -137 -73 -27 -9 -72 -25 -100 -35 -122 -49 -234 -90 -277 -102 l-48
-13 0 -153 c0 -85 2 -154 5 -154 7 0 81 48 131 85 40 31 148 65 161 51 4 -4 2
-16 -5 -27 -25 -39 15 -32 90 17 40 26 68 49 61 51 -7 2 -21 0 -32 -6 -11 -6
-36 -11 -56 -11 -57 0 -33 24 93 90 85 45 112 55 116 44 3 -9 -1 -14 -12 -14
-17 -1 -64 -30 -47 -30 4 0 0 -9 -10 -20 -33 -37 -6 -33 81 11 108 54 149 92
133 121 -12 23 -14 21 28 42 43 22 63 20 63 -4 0 -20 1 -20 38 -5 20 9 54 27
74 42 21 14 63 35 95 47 70 26 159 72 168 86 3 5 15 10 25 10 10 0 44 24 74
53 40 38 72 58 113 72 32 10 76 28 98 40 56 30 115 66 115 71 0 2 -55 4 -122
3 -83 0 -136 -5 -163 -15z"/>
<path d="M1620 6333 c-69 -36 -165 -90 -213 -119 -49 -30 -90 -54 -93 -54 -3
0 -48 -26 -102 -58 -53 -33 -122 -72 -152 -89 -69 -38 -258 -146 -302 -173
-18 -11 -48 -26 -67 -35 -19 -8 -95 -52 -170 -97 -75 -45 -170 -101 -211 -125
-93 -55 -85 -49 -207 -123 l-103 -62 0 -1123 0 -1123 33 -24 c17 -14 48 -30
67 -37 40 -13 100 -63 100 -83 -1 -43 -75 -74 -151 -64 l-49 7 0 -419 0 -419
31 -7 c17 -3 42 -6 55 -6 13 0 33 -9 44 -20 14 -14 33 -20 64 -20 25 0 48 -4
51 -10 4 -6 -11 -10 -37 -11 -24 0 -52 -4 -63 -9 -13 -6 10 -8 67 -6 48 2 90
1 93 -2 3 -3 12 -7 21 -8 138 -20 205 -26 258 -21 48 5 67 3 75 -7 21 -25 369
-8 518 25 23 5 60 9 82 9 36 0 44 5 71 42 16 22 30 48 30 57 0 18 -54 46 -70
36 -5 -3 -10 -1 -10 4 0 6 -7 11 -15 11 -7 0 -18 7 -23 16 -7 13 -27 17 -90
18 -73 1 -117 15 -100 31 3 3 82 6 176 7 l172 1 0 28 c0 16 -7 29 -17 33 -14
6 -15 9 -4 15 9 6 10 11 2 15 -6 4 -11 3 -11 -2 0 -6 -8 -8 -17 -6 -10 3 -63
8 -118 12 -100 7 -100 7 -103 35 -3 24 0 27 30 28 59 2 63 4 60 21 -2 13 10
18 64 23 48 6 68 4 74 -5 6 -10 9 -9 13 1 5 12 7 12 15 1 7 -11 10 -10 15 5 3
10 15 43 27 73 23 63 24 71 8 65 -7 -3 -26 -1 -43 4 l-30 9 30 2 c17 1 33 2
38 1 4 0 7 5 7 12 0 8 4 7 11 -3 8 -12 9 -11 5 5 -6 22 6 49 20 43 8 -3 44 63
58 110 6 17 2 24 -16 32 -23 11 -23 11 0 6 15 -3 22 1 22 11 0 8 4 12 8 9 5
-3 15 7 23 22 8 15 29 52 48 82 79 126 102 173 89 182 -15 9 -63 12 -132 9
-53 -3 -136 16 -136 31 0 6 32 7 83 3 55 -5 97 -3 127 6 25 6 56 13 70 15 14
2 26 8 28 14 2 5 8 7 14 4 6 -4 8 4 6 17 -3 21 -10 25 -63 30 -33 4 -109 7
-170 8 -116 1 -150 10 -127 33 9 9 45 13 112 13 55 0 100 3 100 8 0 4 9 7 20
7 11 0 20 -4 20 -9 0 -6 27 -9 60 -8 45 2 60 6 61 17 0 10 3 8 9 -5 7 -15 9
-7 8 30 l-1 50 -96 -3 c-160 -6 -230 -2 -264 12 l-32 13 40 11 c22 6 66 12 97
13 45 2 63 8 83 27 l27 24 -4 -28 c-3 -29 -3 -29 57 -31 33 -2 72 -4 87 -6 16
-2 24 1 21 6 -4 6 3 8 18 4 13 -4 32 -7 42 -7 23 0 22 -23 -3 -45 -41 -38 -11
-79 51 -69 25 4 39 3 39 -4 0 -7 18 -6 52 5 34 10 72 13 108 10 30 -3 85 -9
122 -13 48 -5 72 -3 82 6 8 6 19 9 24 6 6 -3 15 0 21 8 6 7 22 11 35 9 28 -6
36 4 41 54 2 21 4 40 4 42 1 2 8 -2 16 -9 13 -11 15 -8 15 13 0 31 18 43 88
57 27 6 59 20 70 31 14 13 35 19 66 19 57 0 83 9 64 22 -10 7 -8 8 5 4 11 -3
27 2 40 14 12 11 27 18 35 15 7 -2 11 -1 8 4 -3 4 3 16 14 26 31 28 24 35 -32
36 -29 1 -64 5 -78 9 l-25 8 27 1 c32 1 49 21 18 21 -17 0 -19 4 -14 24 3 13
1 27 -5 30 -11 7 -4 36 10 36 4 0 16 -13 25 -29 13 -22 22 -28 33 -22 16 8 94
6 118 -4 9 -3 8 -13 -4 -42 -8 -21 -15 -50 -15 -65 0 -16 -4 -28 -9 -28 -5 0
-14 -12 -20 -27 -10 -26 -12 -27 -19 -8 -7 18 -8 18 -11 -5 -3 -18 -13 -28
-38 -36 -39 -12 -57 -37 -38 -52 6 -5 30 -15 52 -22 78 -24 116 -92 60 -106
-15 -4 -25 -13 -25 -24 0 -11 -14 -24 -37 -34 -102 -45 -115 -64 -93 -139 l14
-45 65 -12 c87 -14 139 -30 152 -46 11 -14 2 -18 -64 -30 -23 -4 -36 -11 -34
-18 4 -9 -16 -9 -85 -1 -111 14 -117 9 -87 -86 14 -43 24 -118 32 -231 l11
-168 50 6 c30 4 70 1 96 -7 l45 -12 -58 -11 c-55 -10 -57 -12 -41 -28 19 -19
23 -16 -48 -38 -34 -10 -36 -13 -40 -59 -2 -36 0 -47 10 -44 6 3 12 1 12 -5 0
-6 -5 -12 -10 -14 -6 -2 0 -30 14 -69 34 -95 45 -110 76 -103 14 3 97 8 185
10 88 3 203 12 255 20 52 9 125 15 161 14 38 -1 82 5 100 13 28 11 42 11 83 1
67 -17 93 -18 231 -10 93 6 133 5 180 -7 33 -8 99 -17 148 -20 l87 -5 0 524
c0 457 -2 525 -15 530 -8 4 -15 12 -15 20 0 8 7 14 15 14 13 0 15 56 15 440
l0 440 -39 -6 c-24 -4 -41 -2 -46 5 -4 7 -19 9 -42 5 -27 -5 -41 -2 -63 15
-16 11 -37 21 -47 21 -27 0 -53 -35 -62 -86 -10 -54 -32 -81 -75 -90 -17 -3
-36 -11 -43 -16 -7 -5 -17 -7 -24 -3 -8 5 -9 0 -5 -16 3 -13 3 -18 0 -11 -6
13 -44 17 -44 5 0 -5 -11 -13 -24 -19 -29 -14 -46 -2 -46 33 0 12 -4 32 -9 45
-5 13 -16 48 -25 80 -22 74 -40 80 -66 21 -19 -43 -22 -45 -51 -39 -17 3 -45
16 -62 28 -39 28 -91 48 -135 53 -29 3 -35 0 -43 -24 -13 -36 -54 -59 -77 -45
-9 6 -26 28 -37 50 -11 21 -23 41 -27 44 -19 15 45 53 79 47 12 -2 25 -6 29
-9 3 -4 12 -4 19 -2 7 3 16 -4 20 -15 9 -29 26 -26 53 9 35 43 96 63 173 56
96 -9 110 -9 159 2 34 8 55 7 89 -5 33 -11 56 -12 97 -5 29 5 57 5 61 1 10
-10 53 0 53 12 0 5 7 9 16 9 8 0 12 -4 9 -10 -11 -18 15 -11 37 10 22 20 87
28 102 13 4 -5 28 -8 52 -8 l44 0 0 218 c0 122 -4 217 -9 217 -8 0 -46 38
-135 135 -33 35 -36 44 -31 78 5 32 3 37 -15 37 -24 0 -27 18 -4 27 9 3 20 0
25 -8 6 -9 9 2 9 33 0 58 16 69 101 71 l58 2 1 336 c0 264 -2 338 -12 342 -10
4 -10 6 0 6 16 1 16 21 -1 21 -20 0 -46 52 -29 57 6 3 10 9 7 14 -3 4 3 14 15
21 22 14 27 44 8 51 -10 4 -10 7 0 18 6 7 12 28 12 46 0 26 -5 35 -22 42 -34
12 -104 24 -96 16 4 -4 -4 -19 -17 -32 -12 -14 -26 -38 -29 -53 -7 -37 -31
-59 -56 -53 -29 8 -70 -16 -70 -40 0 -11 12 -36 27 -56 40 -52 41 -128 2 -116
-14 5 -21 0 -28 -18 -13 -34 -21 -36 -57 -21 -41 17 -68 72 -54 109 14 38 14
38 -27 30 -21 -3 -58 -7 -82 -8 -35 -2 -48 -8 -64 -30 -18 -23 -19 -32 -10
-60 7 -17 9 -44 6 -59 -7 -34 11 -37 36 -7 12 15 31 23 59 25 39 2 43 0 58
-32 19 -41 14 -61 -22 -74 -36 -14 -63 -4 -75 28 -7 19 -12 23 -18 13 -6 -9
-11 -10 -15 -2 -11 17 -24 13 -31 -9 -5 -15 -14 -18 -41 -16 -19 1 -44 -4 -54
-11 -22 -16 -55 -10 -82 15 -20 17 -24 78 -7 102 9 13 10 13 6 -1 -4 -13 -1
-15 14 -12 10 3 19 12 19 19 0 8 8 14 18 13 10 0 12 -3 5 -6 -22 -8 -15 -32 7
-26 12 3 20 14 20 27 0 18 -6 23 -29 23 -34 0 -61 18 -61 42 0 23 -41 39 -73
28 -21 -7 -31 -4 -48 12 -12 11 -27 17 -33 15 -7 -3 -19 2 -26 11 -7 8 -18 15
-24 15 -18 0 -79 72 -67 79 5 4 -3 15 -19 26 -31 21 -37 51 -20 105 6 22 8 23
15 8 9 -22 35 -24 35 -4 0 8 14 24 30 36 27 19 33 20 60 8 17 -7 30 -17 30
-23 0 -14 36 -36 45 -27 3 4 14 7 23 7 9 0 23 13 31 30 10 21 16 25 19 15 3
-8 11 -21 19 -28 11 -11 17 -9 37 13 20 21 25 23 30 10 3 -9 10 -13 16 -10 6
4 7 -1 3 -10 -5 -15 -3 -15 16 -3 20 12 25 10 45 -13 30 -34 43 -38 91 -24 33
10 41 17 43 40 3 25 2 27 -24 21 -20 -5 -32 -2 -50 15 -13 12 -27 20 -30 16
-6 -6 -34 16 -34 27 0 2 8 7 18 9 13 4 12 5 -5 6 -12 0 -24 -5 -26 -11 -4 -9
-16 -2 -37 20 -24 26 -30 40 -26 63 3 23 1 29 -9 25 -8 -3 -12 0 -9 8 3 7 -5
21 -16 31 -17 16 -25 17 -40 7 -12 -7 -21 -8 -25 -2 -9 15 -25 2 -18 -15 4
-11 1 -13 -11 -9 -9 3 -16 10 -16 15 0 17 -25 9 -54 -17 -22 -21 -27 -33 -23
-54 11 -53 -45 -69 -89 -25 -14 14 -43 32 -64 39 -37 13 -39 12 -61 -13 -18
-22 -29 -26 -61 -22 -25 2 -52 -3 -73 -15 l-33 -17 -36 35 c-20 19 -36 42 -36
50 0 8 -8 23 -18 34 -10 10 -24 33 -32 50 -10 22 -19 30 -32 26 -13 -3 -18 1
-18 17 l0 21 -532 -1 -533 0 -125 -66z m1920 -42 c0 -12 -29 -35 -36 -28 -7 6
17 36 29 37 4 0 7 -4 7 -9z m-7 -113 c-2 -4 -10 -5 -18 -1 -8 3 -15 0 -15 -6
0 -6 -7 -11 -16 -11 -10 0 -14 7 -12 23 2 14 9 21 20 19 9 -1 20 3 24 10 5 8
10 6 14 -8 4 -10 6 -22 3 -26z m32 2 c3 -5 1 -10 -4 -10 -6 0 -11 5 -11 10 0
6 2 10 4 10 3 0 8 -4 11 -10z m-421 -22 c-5 -7 -2 -9 9 -5 10 4 21 -3 31 -19
15 -22 15 -27 -1 -57 -9 -17 -16 -38 -15 -44 5 -23 -18 -14 -53 22 -37 36 -45
74 -22 97 17 17 60 22 51 6z m183 -4 c-3 -3 -12 -4 -19 -1 -8 3 -5 6 6 6 11 1
17 -2 13 -5z m243 2 c0 -9 -30 -14 -35 -6 -4 6 3 10 14 10 12 0 21 -2 21 -4z
m510 -452 c0 -8 -5 -12 -10 -9 -6 4 -8 11 -5 16 9 14 15 11 15 -7z m-75 -83
c-3 -6 -11 -8 -17 -5 -6 4 -5 9 3 15 16 10 23 4 14 -10z m27 -43 c-9 -9 -15
-9 -24 0 -9 9 -7 12 12 12 19 0 21 -3 12 -12z m-315 -99 c14 -10 23 -31 28
-67 6 -45 4 -53 -11 -59 -10 -4 -19 -2 -22 5 -2 7 -19 19 -37 26 -27 12 -35
22 -41 50 -11 60 30 82 83 45z m382 -64 c41 -21 51 -37 47 -81 -2 -21 -4 -55
-5 -76 -1 -30 -7 -39 -35 -56 -21 -13 -35 -30 -39 -48 -3 -16 -11 -42 -18 -59
-7 -16 -11 -36 -10 -42 1 -9 -12 -13 -38 -13 -47 0 -92 33 -121 90 -10 20 -34
53 -52 71 -18 19 -44 58 -57 87 -20 43 -22 56 -13 77 9 18 19 25 39 25 60 0
85 6 94 23 7 12 17 15 33 11 14 -3 27 -1 31 6 10 16 105 6 144 -15z m-2495
-394 c15 -16 16 -23 5 -43 -16 -31 -85 -124 -127 -171 -18 -21 -38 -50 -44
-65 -7 -15 -17 -34 -24 -42 -6 -8 -15 -25 -18 -37 -6 -18 -3 -23 9 -23 11 0
15 5 11 15 -3 8 3 19 14 25 15 8 20 6 23 -8 4 -13 5 -11 6 6 1 13 7 22 16 22
9 0 37 19 63 43 26 24 64 53 84 66 20 12 46 38 57 57 12 20 35 41 51 47 17 6
30 14 30 18 0 4 8 5 19 2 10 -2 54 12 97 32 147 68 347 73 484 13 64 -28 127
-62 145 -79 10 -10 -21 2 -70 27 -125 63 -230 81 -374 66 -100 -10 -153 -24
-211 -56 -14 -8 -44 -19 -67 -25 -54 -15 -100 -53 -108 -92 -10 -44 -52 -89
-83 -89 l-27 1 28 15 c15 8 27 17 27 19 0 28 -97 -59 -116 -104 -8 -20 -18
-65 -21 -101 -5 -53 -8 -61 -16 -42 -6 12 -17 22 -25 22 -22 0 -82 23 -82 31
0 7 -25 5 -55 -5 -21 -7 -85 -92 -85 -113 0 -6 -6 -14 -12 -17 -9 -3 -7 -10 7
-22 20 -16 19 -16 -7 -10 -17 4 -28 2 -28 -4 0 -5 -24 -10 -55 -10 -52 0 -55
1 -55 25 0 14 11 43 24 64 14 21 31 54 39 73 8 19 31 51 51 71 20 20 36 40 36
45 0 4 16 24 36 43 20 18 43 48 52 65 20 36 107 145 173 215 51 55 92 64 123
30z m1055 -269 c13 -12 22 -24 20 -26 -5 -5 -58 42 -79 69 -14 19 -14 19 10 0
14 -11 36 -30 49 -43z m-872 -66 l31 0 -36 -26 c-21 -15 -54 -46 -76 -69 -21
-23 -40 -40 -42 -38 -8 8 16 59 41 89 14 16 25 35 25 41 -1 11 -18 -7 -84 -88
-34 -43 -42 -40 -23 7 20 47 85 100 112 91 11 -4 34 -7 52 -7z m107 -45 c-28
-26 -103 -72 -135 -84 -27 -9 -11 31 20 51 14 9 31 21 36 25 22 19 100 52 104
43 2 -5 -9 -21 -25 -35z m193 -33 c-3 -8 -6 -5 -6 6 -1 11 2 17 5 13 3 -3 4
-12 1 -19z m-53 -14 c10 -25 -1 -29 -14 -5 -6 12 -7 21 -1 21 5 0 12 -7 15
-16z m-122 -26 c-7 -7 -12 -8 -12 -2 0 14 12 26 19 19 2 -3 -1 -11 -7 -17z
m39 -1 c-10 -9 -11 -8 -5 6 3 10 9 15 12 12 3 -3 0 -11 -7 -18z m59 -2 c0 -21
-2 -24 -13 -13 -10 9 -11 16 -3 25 15 17 16 16 16 -12z m-29 -82 c-9 -16 -10
-15 -11 8 0 14 3 29 8 33 12 12 14 -22 3 -41z m-44 -35 c-3 -7 -5 -2 -5 12 0
14 2 19 5 13 2 -7 2 -19 0 -25z m30 -40 c-3 -7 -5 -2 -5 12 0 14 2 19 5 13 2
-7 2 -19 0 -25z m-91 -15 c-11 -11 -19 6 -11 24 8 17 8 17 12 0 3 -10 2 -21
-1 -24z m-376 7 c0 -5 -5 -10 -11 -10 -5 0 -7 5 -4 10 3 6 8 10 11 10 2 0 4
-4 4 -10z m367 -98 c36 -34 44 -48 40 -68 -3 -18 1 -27 12 -31 9 -3 32 -13 51
-21 19 -9 55 -23 80 -31 56 -20 61 -41 25 -118 -42 -93 -75 -114 -117 -76 -17
15 -18 15 -18 -10 0 -23 -4 -27 -30 -27 -16 0 -57 9 -90 21 -34 11 -67 19 -74
16 -7 -3 -34 -1 -59 5 -52 11 -60 26 -39 77 17 43 10 49 -22 18 -34 -35 -33
-67 5 -103 17 -16 37 -44 46 -61 14 -30 28 -38 61 -34 6 1 12 -2 12 -8 0 -5
30 -13 66 -17 96 -10 56 -28 -49 -22 l-80 5 33 -30 c28 -25 39 -28 72 -24 42
6 134 50 158 77 8 9 23 19 34 23 12 5 16 13 12 23 -5 14 -4 15 9 4 23 -19 18
-44 -22 -122 -50 -94 -131 -154 -216 -160 -60 -4 -117 55 -117 121 0 73 -20
133 -102 309 -18 39 -19 50 -9 99 6 31 19 70 29 87 16 26 24 31 53 29 51 -4
59 -6 59 -15 0 -5 5 -6 11 -2 7 4 21 7 33 8 15 1 20 7 19 23 -2 15 2 21 11 17
16 -6 55 53 57 87 l2 24 4 -25 c3 -14 25 -44 50 -68z m-342 40 c-8 -8 -25 10
-19 20 4 6 9 5 15 -3 4 -7 6 -15 4 -17z m131 13 c15 -11 16 -23 1 -12 -2 1
-11 -4 -21 -12 -21 -17 -27 -12 -19 17 6 26 12 27 39 7z m-136 -50 c0 -8 -11
-35 -25 -60 -14 -25 -22 -45 -18 -45 4 0 -2 -6 -13 -14 -14 -11 -21 -11 -27
-3 -6 8 -7 6 -4 -4 8 -26 -14 -99 -29 -99 -18 0 -18 41 1 66 22 29 18 40 -5
13 l-19 -24 -1 28 c0 21 15 43 63 91 66 67 77 75 77 51z m150 -35 c0 -5 -2
-10 -4 -10 -3 0 -8 5 -11 10 -3 6 -1 10 4 10 6 0 11 -4 11 -10z m-411 -22 c10
-26 14 -453 8 -828 -4 -281 -12 -320 -66 -342 -15 -6 -21 -12 -13 -15 21 -8
14 -32 -8 -26 -11 3 -17 9 -14 14 3 5 -6 24 -19 41 -18 25 -23 42 -20 68 6 51
-15 75 -68 75 -25 0 -44 5 -46 13 -3 6 2 12 10 12 8 0 17 10 20 22 6 21 7 21
27 3 11 -10 22 -16 23 -14 21 28 40 197 27 234 -6 15 -24 24 -68 34 -57 12
-60 15 -57 40 1 14 3 32 4 39 1 12 59 11 80 -2 14 -9 41 34 41 66 0 30 -24 60
-44 52 -25 -10 -66 61 -73 125 -5 58 -5 61 16 61 15 0 21 -6 21 -23 0 -13 6
-29 12 -35 10 -10 10 -15 -2 -23 -12 -8 -10 -9 7 -4 12 3 31 1 42 -4 25 -14
31 2 31 79 0 56 -2 59 -34 79 -51 32 -60 45 -44 70 7 12 17 21 23 21 5 1 22
11 37 23 21 17 29 35 34 72 8 60 36 95 76 95 20 0 31 -6 37 -22z m721 -38 c0
-5 -4 -10 -9 -10 -6 0 -13 5 -16 10 -3 6 1 10 9 10 9 0 16 -4 16 -10z m723
-117 c-5 -12 -2 -15 9 -11 12 5 15 -4 16 -50 0 -71 30 -168 55 -179 18 -8 18
-9 -1 -32 -24 -31 -40 -24 -77 30 -25 36 -30 52 -30 103 0 76 13 156 25 156 5
0 6 -8 3 -17z m-973 -160 c13 -9 31 -18 40 -18 38 -3 96 -18 107 -27 7 -5 17
-6 24 -2 7 4 10 2 7 -7 -3 -8 -11 -13 -18 -11 -7 1 -18 -2 -24 -8 -7 -5 -16
-7 -19 -4 -3 3 -27 7 -54 8 -53 2 -113 24 -113 43 0 17 11 43 19 43 4 0 17 -8
31 -17z m-246 -145 c-13 -38 -13 -44 1 -54 16 -12 21 -34 7 -34 -4 0 -13 -10
-21 -21 -10 -18 -10 -23 0 -30 7 -4 -11 -6 -40 -5 -60 3 -66 8 -74 59 -5 29
-2 42 12 54 11 9 16 23 14 34 -4 13 0 19 11 19 9 0 16 5 16 10 0 6 20 10 45
10 l44 0 -15 -42z m50 -137 c4 -5 0 -12 -6 -15 -10 -5 -10 -7 0 -12 10 -5 8
-12 -10 -31 -16 -19 -19 -27 -10 -30 10 -4 10 -8 2 -18 -6 -8 -18 -11 -26 -8
-8 3 -14 0 -14 -5 0 -8 -40 -10 -58 -3 -1 0 5 12 14 26 8 13 13 28 11 32 -3 5
14 19 39 32 24 13 41 27 38 32 -3 5 -1 9 5 9 5 0 12 -4 15 -9z m1850 -322 c36
-30 68 -63 72 -73 6 -18 7 -18 16 -2 7 13 13 14 23 6 9 -8 15 -8 20 0 12 19
43 10 63 -17 33 -47 36 -72 14 -93 -13 -12 -18 -27 -15 -40 4 -15 1 -20 -14
-20 -17 0 -29 11 -53 50 -11 18 -19 11 -22 -20 -2 -20 2 -25 21 -26 13 -1 26
-6 30 -11 3 -6 24 -13 46 -16 22 -4 55 -9 73 -13 29 -6 32 -4 32 17 1 26 31
69 49 69 13 0 15 27 2 34 -5 3 -17 -6 -26 -21 l-18 -27 -14 48 c-8 27 -11 52
-6 55 5 3 14 20 22 36 13 30 13 30 22 7 5 -13 13 -20 19 -17 5 3 10 2 10 -4 0
-5 -6 -12 -12 -14 -10 -4 -9 -8 2 -16 8 -5 17 -6 20 -2 3 5 30 11 62 15 50 6
58 5 77 -15 26 -28 26 -49 1 -98 -10 -21 -17 -41 -13 -44 3 -4 -2 -24 -10 -45
-16 -39 -15 -39 9 -51 14 -6 44 -14 67 -17 23 -3 56 -9 72 -14 17 -5 42 -11
57 -14 17 -4 34 -18 44 -38 15 -29 15 -35 -6 -97 -41 -126 -66 -138 -132 -66
-35 39 -47 45 -80 45 -22 0 -47 -4 -57 -9 -15 -8 -21 -4 -34 24 -12 26 -26 37
-54 44 -42 11 -136 1 -173 -19 -41 -22 -155 37 -162 84 -4 26 -93 71 -147 74
-47 2 -183 33 -195 43 -5 5 2 13 17 18 14 5 28 20 32 31 4 12 4 81 0 153 l-7
132 29 18 c22 14 43 17 95 14 64 -4 70 -7 132 -58z m-2364 -9 c12 -7 12 -12 3
-21 -9 -9 -16 -9 -28 1 -29 24 -9 42 25 20z m40 -163 c20 -10 24 -19 22 -42
-3 -23 3 -35 25 -52 28 -23 28 -24 8 -39 -24 -18 -87 -14 -107 7 -8 8 -24 33
-36 57 -17 33 -20 47 -12 62 13 23 61 27 100 7z m-216 -33 c8 -3 13 -11 10
-18 -2 -6 11 -30 31 -51 42 -48 44 -62 9 -75 -51 -20 -142 -1 -164 33 -6 10
-10 20 -8 21 35 21 78 60 78 71 0 7 6 16 13 18 6 3 13 6 14 6 1 1 8 -2 17 -5z
m-196 -50 c12 -4 29 -19 37 -34 14 -27 13 -28 -13 -39 -15 -5 -39 -13 -55 -17
-15 -3 -30 -10 -33 -15 -9 -15 -68 -10 -94 8 -14 9 -26 17 -27 17 -1 1 -4 13
-8 28 -6 22 -2 29 22 42 28 15 128 21 171 10z m2419 -180 c-3 -3 -12 -4 -19
-1 -8 3 -5 6 6 6 11 1 17 -2 13 -5z m-1671 -99 c17 -13 11 -14 -68 -15 -81 0
-99 5 -81 23 13 14 129 7 149 -8z m-550 -471 c16 -4 20 -11 16 -30 -5 -26 -42
-35 -42 -10 0 8 -3 21 -6 30 -7 17 -1 19 32 10z m514 -14 c0 -7 -16 -9 -40 -6
-22 2 -40 0 -40 -5 0 -5 -5 -9 -11 -9 -8 0 -8 5 1 15 14 17 90 21 90 5z m-681
-89 c28 -21 21 -41 -15 -41 -20 0 -24 5 -24 30 0 35 6 36 39 11z m203 -35 c20
-30 -28 -48 -55 -22 -9 9 -20 16 -26 16 -21 0 -11 19 12 23 28 5 60 -2 69 -17z"/>
<path d="M1441 4634 c0 -11 3 -14 6 -6 3 7 2 16 -1 19 -3 4 -6 -2 -5 -13z"/>
<path d="M1742 4004 c-14 -10 -13 -13 6 -23 26 -14 59 -14 67 -1 3 6 14 10 24
10 10 0 23 6 29 13 8 9 -3 12 -50 12 -34 0 -68 -5 -76 -11z"/>
<path d="M3761 3054 c0 -11 3 -14 6 -6 3 7 2 16 -1 19 -3 4 -6 -2 -5 -13z"/>
<path d="M3780 3020 c0 -5 7 -10 16 -10 8 0 12 5 9 10 -3 6 -10 10 -16 10 -5
0 -9 -4 -9 -10z"/>
<path d="M3768 6393 c6 -2 12 -16 12 -29 0 -14 7 -36 16 -49 11 -17 14 -35 10
-60 -9 -45 9 -47 54 -5 43 41 110 40 110 -1 0 -10 5 -19 10 -19 6 0 10 6 10
14 0 7 7 19 15 26 8 7 15 19 15 26 0 8 -7 14 -15 14 -20 0 -19 9 5 45 11 17
20 33 20 38 0 4 -62 7 -137 6 -76 0 -132 -3 -125 -6z m153 -86 c-13 -13 -26
-3 -16 12 3 6 11 8 17 5 6 -4 6 -10 -1 -17z"/>
<path d="M4048 6393 c6 -2 18 -2 25 0 6 3 1 5 -13 5 -14 0 -19 -2 -12 -5z"/>
<path d="M4108 6392 c7 -5 10 -15 7 -24 -8 -19 14 -37 51 -42 16 -2 20 -1 9 2
-18 5 -18 6 4 11 16 4 27 17 32 34 l7 27 -61 0 c-36 0 -57 -4 -49 -8z"/>
<path d="M3510 6351 c0 -20 17 -37 27 -28 7 8 -7 47 -18 47 -5 0 -9 -9 -9 -19z"/>
<path d="M4115 6270 c3 -5 11 -10 16 -10 6 0 7 5 4 10 -3 6 -11 10 -16 10 -6
0 -7 -4 -4 -10z"/>
<path d="M3221 6254 c0 -11 3 -14 6 -6 3 7 2 16 -1 19 -3 4 -6 -2 -5 -13z"/>
<path d="M3670 6250 c0 -4 9 -15 20 -25 11 -10 20 -23 20 -29 0 -7 13 -17 29
-23 32 -12 41 -3 41 41 0 20 -8 24 -55 33 -30 5 -55 7 -55 3z"/>
<path d="M4095 6223 c7 -20 -5 -43 -24 -43 -13 0 -13 -2 -2 -9 11 -7 8 -10 -9
-16 -17 -5 -27 -3 -35 9 -14 18 -35 21 -35 5 0 -6 9 -13 20 -16 11 -3 20 -10
19 -17 -1 -6 2 -21 6 -32 6 -20 12 -21 66 -17 41 4 59 2 59 -6 0 -6 7 -11 15
-11 8 0 15 8 15 19 0 10 7 24 16 32 13 10 17 10 25 -2 7 -10 8 -8 7 11 -2 16
-15 32 -38 46 -19 11 -34 26 -33 32 2 6 -4 9 -12 6 -9 -4 -15 0 -15 9 0 10 -9
14 -25 13 -16 0 -23 -6 -20 -13z"/>
<path d="M1011 6174 c0 -11 3 -14 6 -6 3 7 2 16 -1 19 -3 4 -6 -2 -5 -13z"/>
<path d="M3930 6050 c0 -11 4 -20 9 -20 5 0 11 9 14 20 3 13 0 20 -9 20 -8 0
-14 -9 -14 -20z"/>
<path d="M3545 6034 c-12 -5 -7 -76 5 -84 5 -3 11 -17 15 -32 5 -19 1 -32 -14
-47 -12 -12 -21 -33 -21 -47 0 -21 4 -24 20 -19 13 4 20 2 20 -7 1 -24 40 34
40 58 0 14 6 35 14 47 13 19 13 25 0 41 -8 11 -14 16 -15 10 0 -5 -7 5 -14 21
l-14 30 -1 -27 c0 -16 -5 -28 -11 -28 -8 0 -10 15 -7 45 5 44 4 48 -17 39z"/>
<path d="M3220 5989 c0 -5 5 -7 10 -4 6 3 10 8 10 11 0 2 -4 4 -10 4 -5 0 -10
-5 -10 -11z"/>
<path d="M3503 5845 c-10 -11 -10 -15 0 -19 9 -3 8 -7 -3 -15 -8 -5 -11 -13
-7 -17 11 -11 19 2 23 36 4 34 4 35 -13 15z"/>
<path d="M90 5540 c-13 -11 -18 -20 -13 -20 15 0 61 39 47 40 -6 0 -21 -9 -34
-20z"/>
<path d="M2610 3491 c-18 -5 -21 -9 -11 -15 8 -5 19 -2 29 8 9 9 14 16 12 15
-3 -1 -16 -4 -30 -8z"/>
<path d="M2592 3269 c-31 -9 -33 -12 -27 -42 4 -18 19 -43 34 -57 15 -14 36
-38 47 -54 10 -16 20 -24 22 -17 2 6 8 9 13 5 5 -3 9 -1 9 5 0 5 -4 11 -9 13
-6 2 -6 22 0 51 8 42 6 52 -13 78 -23 31 -26 32 -76 18z"/>
<path d="M1682 2877 c-24 -51 -41 -139 -24 -122 20 20 61 138 53 153 -6 10
-14 2 -29 -31z"/>
<path d="M1944 2895 c-4 -8 -12 -15 -20 -15 -8 0 -14 -6 -14 -13 0 -7 -9 -30
-20 -52 -24 -47 -24 -45 -5 -45 19 0 19 -9 -2 -32 -25 -28 -6 -35 23 -7 18 17
23 30 19 46 -3 13 -2 23 3 23 7 0 42 85 42 103 0 13 -21 7 -26 -8z"/>
<path d="M1624 2820 c-4 -22 -11 -43 -15 -46 -5 -3 -9 -10 -9 -15 0 -6 5 -7
12 -3 8 5 9 2 4 -12 -16 -37 -18 -54 -11 -71 6 -16 8 -15 17 7 9 23 19 180 11
180 -1 0 -6 -18 -9 -40z"/>
<path d="M2038 2804 c-23 -20 -44 -40 -46 -45 -2 -5 -8 -9 -13 -9 -5 0 -26
-15 -45 -32 -49 -44 -78 -70 -101 -88 -11 -8 -32 -33 -49 -55 -16 -22 -31 -42
-35 -45 -3 -3 -24 -32 -47 -65 -22 -33 -53 -74 -69 -90 -15 -17 -35 -39 -43
-49 -13 -18 -13 -19 0 -11 13 8 13 6 1 -8 -7 -9 -18 -14 -24 -10 -6 3 -7 1 -3
-5 4 -7 -6 -25 -21 -41 -68 -71 -103 -118 -103 -138 0 -22 24 -14 58 17 36 33
48 37 55 18 4 -12 -11 -57 -23 -68 -15 -15 -31 -56 -37 -95 -4 -31 -15 -53
-38 -77 -51 -51 -66 -62 -122 -88 -29 -14 -52 -31 -53 -39 0 -9 -12 -12 -45
-9 -25 2 -47 -1 -50 -7 -2 -5 -2 4 1 20 l6 30 -26 -30 c-14 -16 -25 -33 -26
-38 0 -4 -11 -29 -24 -56 l-23 -49 31 13 c17 7 50 16 74 20 l42 7 0 -41 c0
-34 -3 -41 -20 -41 -11 0 -20 -4 -20 -9 0 -5 -12 -11 -27 -14 -16 -3 -40 -17
-55 -31 -19 -19 -35 -25 -57 -22 -17 2 -31 -1 -31 -6 0 -6 -6 -8 -13 -5 -30
11 -127 -196 -127 -271 0 -21 5 -43 12 -50 15 -15 58 -16 58 -2 0 6 6 10 14
10 7 0 21 11 30 25 18 28 36 33 36 10 0 -8 -4 -15 -10 -15 -5 0 -20 -10 -33
-23 -14 -12 -36 -33 -51 -46 -34 -30 -36 -76 -3 -85 48 -13 62 -5 137 73 79
83 126 113 136 87 9 -24 -22 -71 -104 -154 -77 -78 -134 -122 -160 -122 -24 0
-102 -42 -102 -56 0 -22 80 -147 108 -169 25 -20 29 -24 60 -61 9 -11 35 -27
57 -36 26 -11 39 -22 37 -32 -2 -10 4 -16 18 -16 27 0 27 36 0 50 -11 6 -19
14 -16 18 3 4 -9 14 -26 22 -28 12 -30 14 -12 21 11 3 26 14 33 23 7 9 20 16
28 16 9 0 12 6 9 18 -4 12 5 29 29 52 29 28 42 34 71 32 20 -2 52 2 71 9 25 8
46 8 85 -1 l50 -13 -6 -56 c-4 -31 -9 -117 -12 -191 -2 -74 -9 -182 -14 -240
-5 -58 -12 -158 -16 -222 l-6 -118 694 0 694 0 -3 38 c-30 475 -31 722 -2 722
5 0 9 -6 9 -14 0 -8 8 -30 19 -48 11 -19 19 -55 20 -83 2 -63 27 -213 39 -229
5 -6 14 -25 20 -43 17 -50 86 -193 93 -193 12 0 20 35 10 38 -6 2 -11 15 -11
28 0 13 -4 24 -10 24 -5 0 -10 7 -10 17 0 9 -10 35 -23 57 -28 50 -29 111 -2
111 10 0 19 -7 21 -15 1 -8 12 -42 24 -75 12 -33 24 -76 27 -96 3 -20 16 -49
30 -65 13 -16 22 -24 20 -19 -3 6 1 19 9 29 11 16 16 17 29 6 12 -10 15 -10
15 3 0 9 -5 19 -10 22 -6 4 -7 11 -4 17 4 6 17 -6 30 -27 13 -21 20 -43 17
-48 -4 -6 -1 -7 6 -2 8 4 11 19 8 39 -3 17 -3 25 0 19 2 -7 10 -13 18 -13 8 0
13 -15 13 -45 1 -44 0 -46 -26 -43 -15 2 -30 8 -34 13 -4 6 -8 -1 -8 -15 0
-19 -6 -26 -21 -27 -30 -3 -35 -11 -17 -30 19 -18 45 -12 56 14 4 11 17 18 32
18 16 0 28 8 35 22 5 12 17 24 27 26 10 3 18 10 18 17 0 6 -5 8 -11 5 -13 -8
-39 25 -32 41 2 7 15 15 28 18 14 4 29 15 35 26 8 16 8 18 -4 14 -19 -7 -41
33 -28 49 23 27 -14 152 -42 141 -14 -6 -42 48 -32 64 3 5 -7 20 -22 33 -45
40 -101 171 -82 194 6 7 39 23 73 35 162 59 208 82 201 99 -4 9 -9 28 -12 43
-2 16 -9 28 -14 28 -5 0 -7 4 -4 9 4 5 1 22 -5 38 -6 15 -15 42 -19 58 -33
124 -46 157 -85 220 -25 39 -45 77 -45 84 0 7 -6 11 -12 9 -7 -3 -20 13 -30
34 -9 21 -24 41 -33 44 -8 4 -15 18 -15 33 0 14 -13 42 -29 61 -15 19 -34 53
-41 75 -7 22 -21 58 -30 80 -10 22 -24 58 -30 80 -7 22 -28 71 -46 109 -19 37
-34 76 -34 86 0 10 -11 42 -25 72 l-25 53 0 -45 c0 -25 7 -90 16 -145 14 -92
27 -229 17 -177 -2 12 -8 22 -12 22 -4 0 -20 25 -36 55 -16 31 -33 54 -38 52
-5 -1 -18 -23 -28 -47 l-18 -45 0 38 c-1 21 -6 47 -11 57 -6 11 -15 59 -21
107 -23 192 -27 219 -37 243 -25 59 -2 -361 26 -490 6 -25 13 -76 17 -115 3
-38 22 -141 41 -227 40 -185 42 -211 9 -108 -43 134 -55 178 -55 207 0 22 -2
25 -10 13 -8 -13 -10 -13 -10 2 0 9 5 20 11 24 8 5 8 8 0 13 -6 4 -15 43 -21
86 -5 44 -14 103 -20 130 -16 77 -30 218 -23 243 3 12 1 22 -5 22 -6 0 -10 35
-10 89 0 49 -4 104 -10 123 -5 18 -15 60 -21 93 -6 33 -20 98 -31 145 -10 47
-22 104 -25 127 -4 24 -10 45 -15 48 -5 3 -11 23 -15 45 -4 22 -11 42 -15 45
-13 8 -50 -17 -50 -32 0 -9 -17 -13 -51 -13 -49 0 -109 -24 -109 -44 0 -5 -11
-19 -25 -32 -16 -15 -23 -29 -18 -40 5 -14 2 -16 -15 -12 -17 5 -22 2 -22 -13
0 -10 -7 -19 -15 -19 -17 0 -20 25 -5 35 12 7 -4 26 -38 44 -15 8 -22 8 -22 1
0 -6 -4 -8 -10 -5 -10 6 -8 60 3 72 4 3 2 12 -4 20 -8 9 -7 21 4 45 19 40 47
109 47 114 0 16 -46 -2 -82 -32z m-555 -1185 c-1 -23 -9 -39 -25 -49 -12 -8
-30 -23 -39 -33 -9 -11 -22 -24 -29 -30 -56 -56 -172 -175 -200 -206 -52 -59
-110 -78 -110 -36 0 7 -5 15 -10 17 -6 2 21 37 60 78 38 41 70 78 70 81 0 3
18 25 40 49 22 24 40 46 40 50 0 4 20 17 45 29 25 12 43 27 40 32 -4 5 1 6 9
3 10 -4 30 6 52 25 43 38 60 35 57 -10z m1377 -157 c0 -8 7 -24 17 -34 9 -10
21 -28 27 -41 6 -12 29 -33 50 -47 l38 -25 -32 -9 c-73 -21 -118 25 -127 129
-5 63 -4 68 11 56 9 -7 16 -20 16 -29z m-895 -112 c3 -11 13 -20 21 -20 8 0
14 -9 14 -20 0 -11 5 -20 11 -20 13 0 69 -55 69 -68 0 -6 4 -12 8 -14 5 -1 37
-39 72 -83 36 -44 72 -87 80 -95 9 -8 30 -35 48 -60 62 -90 160 -180 195 -180
8 0 22 -11 31 -25 19 -30 9 -32 -42 -8 -42 18 -332 305 -332 327 0 8 -7 16
-15 20 -8 3 -15 12 -15 20 0 9 -9 20 -21 27 -13 7 -19 17 -16 29 3 12 0 17 -9
13 -8 -3 -22 13 -37 44 -14 26 -36 59 -49 73 -27 28 -42 60 -28 60 5 0 12 -9
15 -20z m802 -242 c-3 -7 -5 -2 -5 12 0 14 2 19 5 13 2 -7 2 -19 0 -25z m194
-521 c16 -5 29 -54 29 -115 0 -30 -2 -33 -22 -26 -41 12 -55 33 -61 90 -7 71
-1 91 22 71 9 -8 23 -17 32 -20z m259 -268 c0 -11 -4 -19 -9 -19 -16 0 -31 27
-25 44 8 21 34 2 34 -25z m-126 -45 c9 -22 -3 -32 -14 -14 -12 19 -12 30 -1
30 5 0 12 -7 15 -16z m66 -5 c6 -11 10 -24 8 -29 -5 -14 -25 3 -32 28 -9 28 9
29 24 1z m-102 3 c17 -11 24 -52 9 -52 -7 0 -20 14 -29 30 -17 30 -9 40 20 22z"/>
<path d="M1795 2710 c4 -6 11 -8 16 -5 14 9 11 15 -7 15 -8 0 -12 -5 -9 -10z"/>
<path d="M1830 2679 c0 -5 5 -7 10 -4 6 3 10 8 10 11 0 2 -4 4 -10 4 -5 0 -10
-5 -10 -11z"/>
<path d="M1791 2655 c-8 -13 -14 -16 -17 -8 -4 8 -16 2 -34 -17 -16 -17 -33
-30 -39 -30 -5 0 -12 -7 -15 -16 -3 -8 -10 -13 -15 -10 -10 6 -21 -16 -21 -41
0 -16 -40 -72 -40 -57 -1 5 -16 -22 -35 -61 -18 -38 -31 -72 -29 -74 5 -5 39
32 83 89 14 19 34 44 44 55 10 10 15 25 12 33 -2 7 -1 10 4 7 11 -6 61 55 61
74 0 7 4 10 9 7 12 -8 54 40 49 56 -3 9 -8 6 -17 -7z"/>
<path d="M2602 2360 c-1 -25 3 -63 7 -85 l9 -40 0 35 c0 19 -3 58 -8 85 l-7
50 -1 -45z"/>
<path d="M1467 2270 c-9 -11 -14 -20 -10 -20 4 0 2 -5 -5 -12 -7 -7 -12 -16
-12 -22 0 -5 11 4 25 20 14 16 25 35 25 42 0 16 -3 15 -23 -8z"/>
<path d="M1041 1554 c0 -11 3 -14 6 -6 3 7 2 16 -1 19 -3 4 -6 -2 -5 -13z"/>
<path d="M850 1050 c0 -5 5 -10 11 -10 5 0 7 5 4 10 -3 6 -8 10 -11 10 -2 0
-4 -4 -4 -10z"/>
<path d="M3323 968 c1 -28 11 -36 22 -18 3 6 2 10 -4 10 -5 0 -12 8 -14 18 -3
9 -4 5 -4 -10z"/>
<path d="M3855 570 c11 -5 27 -9 35 -9 13 -1 13 0 0 9 -8 5 -24 9 -35 9 l-20
0 20 -9z"/>
<path d="M3951 562 c-19 -6 -21 -9 -10 -18 26 -20 123 -56 168 -63 47 -6 65
-26 34 -38 -10 -3 -31 -15 -46 -26 -22 -15 -37 -17 -76 -12 -48 6 -66 -1 -53
-21 4 -6 15 -13 25 -17 29 -11 20 -30 -12 -24 -26 5 -61 -15 -61 -35 0 -3 54
-9 120 -13 113 -6 120 -8 115 -26 -4 -11 -3 -19 2 -17 4 1 27 -4 50 -12 39
-12 45 -11 63 5 27 24 26 71 -1 86 -13 6 -24 7 -28 2 -11 -17 -39 -22 -51 -8
-8 10 -3 21 24 47 37 36 34 58 -6 58 -10 0 -18 6 -18 14 0 17 34 16 67 -2 31
-17 33 -16 33 18 0 33 -15 44 -73 54 -21 4 -52 16 -70 26 -18 11 -41 19 -52
19 -11 -1 -42 2 -70 5 -27 3 -61 2 -74 -2z"/>
<path d="M3623 441 c-28 -24 -29 -62 -3 -86 19 -17 22 -17 82 9 92 39 111 50
116 64 3 8 -12 12 -52 12 -30 0 -58 5 -61 10 -10 16 -58 11 -82 -9z"/>
<path d="M4080 190 c0 -5 5 -10 11 -10 5 0 7 5 4 10 -3 6 -8 10 -11 10 -2 0
-4 -4 -4 -10z"/>
<path d="M3064 135 c-10 -8 -14 -14 -9 -15 15 0 40 18 34 24 -3 3 -14 -1 -25
-9z"/>
<path d="M3865 100 c4 -6 11 -8 16 -5 14 9 11 15 -7 15 -8 0 -12 -5 -9 -10z"/>
<path d="M4167 34 c-15 -15 -6 -24 24 -24 20 0 29 4 27 13 -5 14 -40 21 -51
11z"/>
<path d="M3630 10 c0 -5 5 -10 10 -10 6 0 10 5 10 10 0 6 -4 10 -10 10 -5 0
-10 -4 -10 -10z"/>
</g>
</svg>
